<svg width="112" height="112" viewBox="0 0 112 112" fill="#43AEAA" xmlns="http://www.w3.org/2000/svg">
<g clip-path="url(#clip0_13_153)">
<path d="M107.624 45.4383L77.7578 15.5716C71.9413 9.74761 62.4586 9.74761 56.6421 15.5716C53.8197 18.3865 52.2666 22.1423 52.2666 26.1295C52.2666 30.1167 53.8197 33.8724 56.6421 36.6873L75.9509 55.9961L56.6421 75.305C53.8197 78.1273 52.2666 81.8756 52.2666 85.8628C52.2666 89.85 53.8197 93.5983 56.6421 96.4207C59.4645 99.2431 63.2127 100.796 67.1999 100.796C71.1871 100.796 74.9354 99.2431 77.7578 96.4207L107.624 66.554C110.447 63.7391 112 59.9833 112 55.9961C112 52.0089 110.447 48.2532 107.624 45.4383ZM102.346 61.2751L72.4789 91.1418C69.649 93.9642 64.7509 93.9642 61.921 91.1418C59.009 88.2298 59.009 83.4959 61.921 80.5839L86.5087 55.9961L61.921 31.4084C60.5098 29.9972 59.7333 28.1231 59.7333 26.1295C59.7333 24.1359 60.5098 22.2617 61.921 20.8505C63.377 19.3945 65.2885 18.6628 67.1999 18.6628C69.1114 18.6628 71.0229 19.3945 72.4789 20.8431L102.346 50.7097C103.757 52.1284 104.533 54.0025 104.533 55.9961C104.533 57.9897 103.757 59.8639 102.346 61.2751Z" fill="#43AEAA" stroke="#43AEAA" stroke-width="0.8"/>
<path d="M55.3579 45.4383L25.4912 15.5716C19.6747 9.74761 10.192 9.74761 4.37547 15.5716C1.55307 18.3865 0 22.1423 0 26.1295C0 30.1167 1.55307 33.8724 4.37547 36.6873L23.6843 55.9961L4.37547 75.305C1.55307 78.1273 0 81.8756 0 85.8628C0 89.85 1.55307 93.5983 4.37547 96.4207C7.19787 99.2431 10.9461 100.796 14.9333 100.796C18.9205 100.796 22.6688 99.2431 25.4912 96.4207L55.3579 66.554C58.1803 63.7391 59.7333 59.9833 59.7333 55.9961C59.7333 52.0089 58.1803 48.2532 55.3579 45.4383ZM50.0789 61.2751L20.2123 91.1418C17.3824 93.9642 12.4843 93.9642 9.6544 91.1418C6.7424 88.2298 6.7424 83.4959 9.6544 80.5839L34.2421 55.9961L9.6544 31.4084C8.2432 29.9972 7.46667 28.1231 7.46667 26.1295C7.46667 24.1359 8.2432 22.2617 9.6544 20.8505C11.1104 19.3945 13.0219 18.6628 14.9333 18.6628C16.8448 18.6628 18.7563 19.3945 20.2123 20.8431L50.0789 50.7097C51.4901 52.1284 52.2667 54.0025 52.2667 55.9961C52.2667 57.9897 51.4901 59.8639 50.0789 61.2751Z" fill="#43AEAA" stroke="#43AEAA" stroke-width="0.8"/>
</g>
<defs>
<clipPath id="clip0_13_153">
<rect width="112" height="112" fill="white"/>
</clipPath>
</defs>
</svg>
