<svg width="58" height="58" viewBox="0 0 58 58" fill="none" xmlns="http://www.w3.org/2000/svg">
<g clip-path="url(#clip0_19_107)">
<path d="M10.6789 19.2356C10.6789 19.264 10.6621 19.2892 10.6621 19.3179C10.6683 19.3653 10.6776 19.4122 10.6904 19.4582C10.9718 24.1209 13.0153 28.5021 16.4062 31.7147C18.8958 34.0812 20.3034 37.3664 20.2998 40.8011V41.5512C19.1537 41.5463 18.1134 42.2193 17.6483 43.2672C17.1828 44.3146 17.3815 45.5381 18.1541 46.3846C17.3815 47.2316 17.1828 48.4547 17.6483 49.5025C18.1134 50.5499 19.1537 51.223 20.2998 51.2181H21.3331C21.8176 55.0838 25.1041 57.984 28.9999 57.984C32.8957 57.984 36.1822 55.0838 36.6667 51.2181H37.7C38.8461 51.223 39.8864 50.5499 40.3515 49.5025C40.817 48.4547 40.6183 47.2316 39.8457 46.3846C40.6183 45.5381 40.817 44.3146 40.3515 43.2672C39.8864 42.2193 38.8461 41.5463 37.7 41.5512V40.8011C37.6982 37.3664 39.1072 34.0812 41.5967 31.7147C46.8014 26.8095 48.6856 19.3294 46.4258 12.5441C44.1654 5.75826 38.1721 0.902212 31.0655 0.0977376C30.0823 -0.00226851 29.0928 -0.0257212 28.1056 0.0282643C28.0808 0.0260518 28.0583 0.0136617 28.033 0.0136617C27.9945 0.0189718 27.9565 0.0264943 27.9193 0.0366719C23.7726 0.257924 19.8272 1.89564 16.7434 4.67678C12.8595 8.16195 10.6382 13.133 10.6333 18.3515C10.6333 18.648 10.6652 18.94 10.6789 19.2356ZM17.7355 30.308C14.915 27.6729 13.1255 24.1196 12.6874 20.2848H16.2111C16.258 20.2786 16.3044 20.2693 16.35 20.2565C16.4199 20.2499 16.489 20.2361 16.5562 20.2149C16.6217 20.1852 16.6841 20.1485 16.7416 20.1047C16.7823 20.0844 16.8213 20.0609 16.8585 20.0344C16.8655 20.0344 16.8673 20.0215 16.8731 20.0158C16.9253 19.96 16.9704 19.8985 17.0085 19.8321C17.0386 19.7936 17.0664 19.7525 17.0908 19.7096C17.1085 19.6578 17.1217 19.6042 17.1302 19.5498C17.1518 19.4821 17.1664 19.4122 17.1726 19.3414C17.1726 19.3334 17.1726 19.3268 17.1726 19.3179C17.1669 19.271 17.1572 19.2241 17.1439 19.179C17.1381 19.1086 17.1244 19.0396 17.1023 18.9728C17.0731 18.9069 17.0359 18.8445 16.9921 18.7874C16.9717 18.7462 16.9483 18.7068 16.9222 18.6692C16.6058 18.3166 16.4314 17.8586 16.4332 17.3846C16.4332 16.3169 17.2988 15.4513 18.3665 15.4513C19.4343 15.4513 20.2998 16.3169 20.2998 17.3846C20.3003 17.8594 20.1241 18.3174 19.806 18.6692C19.7794 18.7068 19.7564 18.7462 19.7365 18.7874C19.6923 18.8445 19.6555 18.9069 19.6263 18.9728C19.6042 19.0396 19.59 19.1086 19.5847 19.179C19.571 19.2241 19.5613 19.271 19.5555 19.3179V19.3414C19.5622 19.4126 19.5763 19.483 19.598 19.5511C19.6069 19.6047 19.6201 19.6578 19.6378 19.7096C19.6622 19.7529 19.69 19.7945 19.721 19.8335C19.7582 19.8994 19.8033 19.9609 19.8551 20.0158C19.8609 20.0215 19.8631 20.0295 19.8697 20.0344C19.9166 20.0702 19.9666 20.1007 20.0197 20.126C20.0635 20.1591 20.1104 20.1879 20.1595 20.2122C20.2733 20.2591 20.3945 20.2835 20.5175 20.2848H27.0666V28.018C27.0724 28.0649 27.0816 28.1114 27.0945 28.1574C27.0993 28.3012 27.1529 28.4393 27.2463 28.5486C27.2671 28.5897 27.2905 28.6291 27.3171 28.6667C27.3171 28.6725 27.3295 28.6743 27.3352 28.68C27.391 28.7327 27.4534 28.7787 27.5197 28.8163C27.5587 28.8464 27.5994 28.8738 27.6419 28.8986C27.6936 28.9159 27.7472 28.9291 27.8012 28.9384C27.8693 28.9597 27.9392 28.9738 28.01 28.98H28.033C28.1485 28.9566 28.264 28.9336 28.3795 28.9101C28.445 28.8809 28.507 28.8437 28.564 28.7999C28.6048 28.7791 28.6441 28.7557 28.6817 28.7296C29.0349 28.4132 29.4924 28.2388 29.9668 28.2402C31.0345 28.2402 31.9001 29.1057 31.9001 30.1735C31.9001 31.2412 31.0345 32.1072 29.9668 32.1072C29.492 32.1081 29.0344 31.932 28.6826 31.6129C28.6437 31.5855 28.603 31.5607 28.5601 31.5395C28.5039 31.4974 28.4432 31.4616 28.3795 31.4324C28.3109 31.4103 28.2401 31.3961 28.1684 31.3899C28.1242 31.3771 28.0791 31.3682 28.033 31.3625C28.026 31.3638 28.0184 31.3656 28.0109 31.3673C27.9348 31.3731 27.8596 31.3881 27.7866 31.412C27.7383 31.4205 27.6905 31.4324 27.6436 31.4479C27.5954 31.474 27.5498 31.5045 27.5073 31.5395C27.4458 31.5749 27.3883 31.6174 27.3361 31.6652C27.3303 31.6718 27.3228 31.674 27.3171 31.6798C27.2887 31.7187 27.2644 31.7603 27.2436 31.8037C27.2011 31.859 27.1648 31.9196 27.1361 31.9833C27.114 32.0523 27.0993 32.1236 27.0936 32.1962C27.0812 32.2395 27.0724 32.2842 27.0666 32.3294V41.5512H22.2331V40.8011C22.2367 36.8341 20.6087 33.0396 17.7315 30.308H17.7355ZM28.9999 56.0512C26.171 56.0476 23.7558 54.0068 23.2801 51.2181H34.7197C34.244 54.0068 31.8288 56.0476 28.9999 56.0512ZM37.7 49.2848H20.2998C19.7662 49.2848 19.3334 48.852 19.3334 48.3179C19.3334 47.7843 19.7662 47.3515 20.2998 47.3515H37.7C38.2337 47.3515 38.6664 47.7843 38.6664 48.3179C38.6664 48.852 38.2337 49.2848 37.7 49.2848ZM38.6664 44.4513C38.6664 44.9854 38.2337 45.4182 37.7 45.4182H20.2998C19.7662 45.4182 19.3334 44.9854 19.3334 44.4513C19.3334 43.9177 19.7662 43.4845 20.2998 43.4845H37.7C38.2337 43.4845 38.6664 43.9177 38.6664 44.4513ZM40.2714 30.3053C37.3933 33.0378 35.7645 36.8327 35.7667 40.8011V41.5512H28.9999V33.902C29.315 33.9896 29.6398 34.0357 29.9668 34.0405C31.4788 34.0626 32.8652 33.2011 33.5148 31.8351C34.1644 30.4695 33.9582 28.8504 32.9873 27.691C32.016 26.5321 30.4584 26.0449 28.9999 26.4454V20.2848H33.9715C33.5391 21.8579 34.1409 23.5332 35.4755 24.4718C36.8097 25.4108 38.5899 25.4108 39.9245 24.4718C41.2591 23.5332 41.8609 21.8579 41.4285 20.2848H45.3221C44.8788 24.1178 43.0888 27.6689 40.2714 30.3053ZM30.8558 2.01954C38.4261 2.89171 44.4093 8.84296 45.3221 16.4085C45.396 17.0532 45.4332 17.7019 45.4332 18.3515H39.8554C39.8094 18.3568 39.7638 18.3661 39.7191 18.3794C39.6483 18.3847 39.578 18.3989 39.5103 18.421C39.4094 18.4812 39.3085 18.5413 39.2081 18.6015C39.201 18.6015 39.1992 18.6144 39.1935 18.6201C39.1412 18.6754 39.0961 18.7365 39.0589 18.8029C39.028 18.8418 39.0001 18.883 38.9757 18.9263C38.958 18.9781 38.9448 19.0312 38.9364 19.0852C38.9142 19.1533 38.9001 19.2237 38.8939 19.2949C38.8939 19.3025 38.889 19.3091 38.889 19.3179C38.8948 19.3653 38.9045 19.4118 38.9178 19.4573C38.9235 19.5272 38.9372 19.5963 38.9594 19.6631C38.989 19.729 39.0257 19.7914 39.0695 19.8485C39.0899 19.8897 39.1129 19.929 39.1395 19.9667C39.4576 20.3189 39.6337 20.7764 39.6333 21.2512C39.6333 22.319 38.7678 23.1845 37.7 23.1845C36.6322 23.1845 35.7667 22.319 35.7667 21.2512C35.7663 20.7764 35.9424 20.3189 36.2605 19.9667C36.2866 19.929 36.3096 19.8897 36.33 19.8485C36.3743 19.7914 36.4114 19.729 36.4402 19.6631C36.4623 19.5963 36.4765 19.5272 36.4818 19.4573C36.4955 19.4118 36.5052 19.3653 36.511 19.3179C36.511 19.3091 36.5061 19.3025 36.5061 19.2949C36.4995 19.2237 36.4853 19.1538 36.4636 19.0861C36.4548 19.0316 36.4415 18.9785 36.4238 18.9263C36.3995 18.8838 36.372 18.8427 36.3419 18.8037C36.3039 18.7374 36.2583 18.6759 36.2065 18.6201C36.2008 18.6144 36.1986 18.6064 36.1919 18.6015C36.1543 18.5754 36.1149 18.5515 36.0738 18.5312C36.0167 18.4878 35.9548 18.4506 35.8893 18.421C35.8216 18.3989 35.7516 18.3847 35.6804 18.3794C35.6362 18.3661 35.5906 18.3568 35.5441 18.3515H28.9999V11.8069C28.9942 11.76 28.9849 11.7135 28.972 11.6679C28.9658 11.598 28.9521 11.5285 28.9304 11.4617C28.9008 11.3962 28.8641 11.3338 28.8203 11.2763C28.7995 11.2356 28.776 11.1958 28.7495 11.1586C28.7495 11.1524 28.7371 11.1506 28.7313 11.1449C28.6769 11.0935 28.6163 11.0489 28.5512 11.0112C28.5114 10.9798 28.4693 10.9515 28.4247 10.9263C28.3738 10.9095 28.322 10.8966 28.2689 10.8878C28.2003 10.8661 28.1295 10.8515 28.0574 10.8453C28.0485 10.8453 28.0419 10.8453 28.033 10.8453C27.9857 10.8511 27.9392 10.8603 27.8932 10.8732C27.8233 10.8798 27.7547 10.8935 27.6883 10.9148C27.6219 10.9444 27.5591 10.9816 27.5016 11.0258C27.4609 11.0458 27.4215 11.0692 27.3848 11.0958C27.0316 11.4121 26.5741 11.5865 26.0997 11.5847C25.032 11.5847 24.1664 10.7192 24.1664 9.65142C24.1664 8.58365 25.032 7.71811 26.0997 7.71811C26.5745 7.71767 27.0325 7.89379 27.3848 8.21195C27.4224 8.23806 27.4618 8.26195 27.5025 8.28275C27.56 8.32612 27.6224 8.36284 27.6883 8.39293C27.7551 8.41373 27.8242 8.42789 27.8941 8.43409C27.9397 8.44692 27.9861 8.45666 28.033 8.46241H28.0574C28.1286 8.45621 28.199 8.44205 28.2671 8.41993C28.3207 8.41108 28.3733 8.39824 28.4247 8.38099C28.4685 8.35621 28.5101 8.32789 28.5494 8.29691C28.6149 8.25974 28.676 8.21461 28.7313 8.16283C28.7371 8.15708 28.7446 8.15487 28.7495 8.14911C28.776 8.1115 28.7995 8.07212 28.8203 8.03141C28.8641 7.97388 28.9008 7.91149 28.9304 7.84556C28.9521 7.77874 28.9658 7.70971 28.972 7.63979C28.9849 7.59244 28.9942 7.54421 28.9999 7.49553V1.9182C29.6199 1.91865 30.2394 1.95272 30.8558 2.01954ZM18.0342 6.11226C20.5459 3.84487 23.7045 2.42045 27.0666 2.03768V5.92287C25.4935 5.49055 23.8182 6.09235 22.8792 7.42695C21.9406 8.7611 21.9406 10.5413 22.8792 11.8759C23.8182 13.2105 25.4935 13.8123 27.0666 13.38V18.3515H22.0951C22.5274 16.778 21.9256 15.1026 20.591 14.1641C19.2568 13.2255 17.4766 13.2255 16.142 14.1641C14.8074 15.1026 14.2056 16.778 14.638 18.3515H12.5666C12.5706 13.6809 14.5579 9.23192 18.0342 6.11226Z" fill="#43AEAA" stroke="#43AEAA" stroke-width="0.5"/>
<path d="M57.033 17.3848H50.2667C49.7326 17.3848 49.2998 17.8175 49.2998 18.3516C49.2998 18.8853 49.7326 19.3181 50.2667 19.3181H57.033C57.5671 19.3181 57.9999 18.8853 57.9999 18.3516C57.9999 17.8175 57.5671 17.3848 57.033 17.3848Z" fill="#43AEAA" stroke="#43AEAA" stroke-width="0.5"/>
<path d="M47.4189 8.6845C47.5888 8.68494 47.7556 8.64025 47.9021 8.55529L53.7613 5.1719C54.2197 4.90285 54.375 4.31477 54.1095 3.85456C53.8436 3.39436 53.2564 3.23505 52.7944 3.49746L46.9356 6.88085C46.5569 7.09945 46.3719 7.54549 46.4852 7.96808C46.5985 8.39068 46.9812 8.6845 47.4189 8.6845Z" fill="#43AEAA" stroke="#43AEAA" stroke-width="0.5"/>
<path d="M46.5808 28.501C46.3139 28.9635 46.4724 29.5546 46.9348 29.8215L52.7935 33.2049C53.2555 33.4677 53.8427 33.308 54.1087 32.8478C54.3742 32.3876 54.2189 31.7995 53.7604 31.5309L47.9012 28.1475C47.4388 27.8802 46.8476 28.0386 46.5808 28.501Z" fill="#43AEAA" stroke="#43AEAA" stroke-width="0.5"/>
<path d="M0.966873 19.3181H7.73322C8.26732 19.3181 8.70009 18.8853 8.70009 18.3516C8.70009 17.8175 8.26732 17.3848 7.73322 17.3848H0.966873C0.43277 17.3848 0 17.8175 0 18.3516C0 18.8853 0.43277 19.3181 0.966873 19.3181Z" fill="#43AEAA" stroke="#43AEAA" stroke-width="0.5"/>
<path d="M4.23975 5.17183L10.099 8.55522C10.3981 8.73046 10.7685 8.73223 11.0694 8.55921C11.3698 8.38663 11.5552 8.06581 11.5544 7.71889C11.5535 7.37197 11.3672 7.05204 11.0654 6.88079L5.20662 3.4974C4.90749 3.32217 4.53711 3.3204 4.23621 3.49297C3.93531 3.66599 3.75034 3.98681 3.75122 4.33329C3.75167 4.68021 3.9384 5.00014 4.23975 5.17183Z" fill="#43AEAA" stroke="#43AEAA" stroke-width="0.5"/>
<path d="M10.099 28.1476L4.23975 31.531C3.9384 31.7022 3.75167 32.0221 3.75122 32.3691C3.75034 32.716 3.93531 33.0364 4.23621 33.2094C4.53711 33.382 4.90749 33.3806 5.20662 33.205L11.0654 29.8216C11.5238 29.553 11.6796 28.9644 11.4136 28.5042C11.1481 28.0445 10.5609 27.8847 10.099 28.1476Z" fill="#43AEAA" stroke="#43AEAA" stroke-width="0.5"/>
</g>
<defs>
<clipPath id="clip0_19_107">
<rect width="58" height="58" fill="white"/>
</clipPath>
</defs>
</svg>
