<svg width="140" height="140" viewBox="0 0 140 140" fill="none" xmlns="http://www.w3.org/2000/svg">
<g clip-path="url(#clip0_75_288)">
<path d="M45.1065 82.0324H45.1129C45.1183 82.0324 45.1236 82.0314 45.1289 82.0314H119.492C121.323 82.0314 122.933 80.8169 123.436 79.0567L139.842 21.6348C140.195 20.3969 139.948 19.066 139.173 18.0385C138.398 17.0109 137.186 16.4064 135.898 16.4064H35.6473L32.7153 3.21194C32.2977 1.33527 30.6335 0.00012207 28.7109 0.00012207H4.10156C1.83609 0.00012207 0 1.83621 0 4.10169C0 6.36716 1.83609 8.20325 4.10156 8.20325H25.4211C25.9402 10.5414 39.4519 71.3449 40.2295 74.843C35.8705 76.7378 32.8125 81.084 32.8125 86.1329C32.8125 92.9176 38.3325 98.4376 45.1172 98.4376H119.492C121.758 98.4376 123.594 96.6015 123.594 94.3361C123.594 92.0706 121.758 90.2345 119.492 90.2345H45.1172C42.856 90.2345 41.0156 88.3941 41.0156 86.1329C41.0156 83.8749 42.8496 82.0378 45.1065 82.0324ZM130.461 24.6095L116.398 73.8283H48.407L37.4695 24.6095H130.461Z" fill="#43AEAA" stroke="#43AEAA"/>
<path d="M41.0156 110.742C41.0156 117.527 46.5356 123.047 53.3203 123.047C60.105 123.047 65.625 117.527 65.625 110.742C65.625 103.958 60.105 98.4375 53.3203 98.4375C46.5356 98.4375 41.0156 103.958 41.0156 110.742ZM53.3203 106.641C55.5815 106.641 57.4219 108.481 57.4219 110.742C57.4219 113.003 55.5815 114.844 53.3203 114.844C51.0591 114.844 49.2187 113.003 49.2187 110.742C49.2187 108.481 51.0591 106.641 53.3203 106.641Z" fill="#43AEAA"/>
<path d="M98.9844 110.742C98.9844 117.527 104.504 123.047 111.289 123.047C118.074 123.047 123.594 117.527 123.594 110.742C123.594 103.958 118.074 98.4375 111.289 98.4375C104.504 98.4375 98.9844 103.958 98.9844 110.742ZM111.289 106.641C113.55 106.641 115.391 108.481 115.391 110.742C115.391 113.003 113.55 114.844 111.289 114.844C109.028 114.844 107.188 113.003 107.188 110.742C107.188 108.481 109.028 106.641 111.289 106.641Z" fill="#43AEAA"/>
</g>
<defs>
<clipPath id="clip0_75_288">
<rect width="140" height="140" fill="white"/>
</clipPath>
</defs>
</svg>
