<svg width="120" height="120" viewBox="0 0 120 120" fill="none" xmlns="http://www.w3.org/2000/svg">
<path d="M102.188 0C96.3717 0 91.6406 4.73109 91.6406 10.5469C91.6406 12.9059 92.4466 15.0638 93.7603 16.8225L76.5591 35.4872C75.7547 35.2901 74.9269 35.1562 74.0625 35.1562C71.9034 35.1562 69.8977 35.813 68.2242 36.9305L55.9582 27.7336C56.2695 26.7401 56.4844 25.7041 56.4844 24.6094C56.4844 18.7936 51.7533 14.0625 45.9375 14.0625C40.1217 14.0625 35.3906 18.7936 35.3906 24.6094C35.3906 25.7041 35.6055 26.7401 35.9168 27.7336L23.6508 36.9305C21.9773 35.813 19.9716 35.1562 17.8125 35.1562C11.9967 35.1562 7.26562 39.8873 7.26562 45.7031C7.26562 51.5189 11.9967 56.25 17.8125 56.25C23.6283 56.25 28.3594 51.5189 28.3594 45.7031C28.3594 44.6084 28.1445 43.5724 27.8332 42.5789L40.0992 33.382C41.7724 34.4995 43.7784 35.1562 45.9375 35.1562C48.0966 35.1562 50.1023 34.4995 51.7758 33.382L64.0418 42.5789C63.7305 43.5724 63.5156 44.6084 63.5156 45.7031C63.5156 51.5189 68.2467 56.25 74.0625 56.25C79.8783 56.25 84.6094 51.5189 84.6094 45.7031C84.6094 43.3441 83.8034 41.1862 82.4897 39.4275L99.6909 20.7628C100.495 20.9599 101.323 21.0938 102.188 21.0938C108.003 21.0938 112.734 16.3627 112.734 10.5469C112.734 4.73109 108.003 0 102.188 0Z" fill="#088C87"/>
<path d="M52.9688 56.25H38.9062C36.963 56.25 35.3906 57.8224 35.3906 59.7656V105.938H56.4844V59.7656C56.4844 57.8224 54.912 56.25 52.9688 56.25Z" fill="#088C87"/>
<path d="M81.0938 70.3125H67.0312C65.088 70.3125 63.5156 71.8849 63.5156 73.8281V105.938H84.6094V73.8281C84.6094 71.8849 83.037 70.3125 81.0938 70.3125Z" fill="#088C87"/>
<path d="M109.219 42.1875H95.1562C93.213 42.1875 91.6406 43.7599 91.6406 45.7031V105.938H112.734V45.7031C112.734 43.7599 111.162 42.1875 109.219 42.1875Z" fill="#088C87"/>
<path d="M24.8438 77.3438H10.7812C8.83805 77.3438 7.26562 78.9162 7.26562 80.8594V105.938H28.3594V80.8594C28.3594 78.9162 26.787 77.3438 24.8438 77.3438Z" fill="#088C87"/>
<path d="M116.484 112.969C100.785 112.969 93.5791 112.969 90.7334 112.969C89.4326 112.969 88.9678 112.969 88.9713 112.969C83.7909 112.969 64.5091 112.969 3.51562 112.969C1.57242 112.969 0 114.541 0 116.484C0 118.428 1.57242 120 3.51562 120C46.0594 120 76.7414 120 116.484 120C118.428 120 120 118.428 120 116.484C120 114.541 118.428 112.969 116.484 112.969Z" fill="#088C87"/>
</svg>
