<svg width="58" height="58" viewBox="0 0 58 58" fill="none" xmlns="http://www.w3.org/2000/svg">
<g clip-path="url(#clip0_59_299)">
<path d="M57.8882 31.6792C57.3674 26.4412 55.0273 21.5031 51.2987 17.7744C48.1123 14.5881 44.2122 12.5405 40.1084 11.6301V8.75176C41.7846 8.33477 43.0304 6.81757 43.0304 5.01422C43.0304 2.89039 41.3027 1.1626 39.1788 1.1626H31.0224C28.8986 1.1626 27.1708 2.89039 27.1708 5.01422C27.1708 6.81746 28.4167 8.33466 30.0927 8.75176V11.6381C26.0015 12.5524 22.1143 14.5972 18.937 17.7745C18.2416 18.4699 17.6004 19.1993 17.0135 19.9574C16.9851 19.9552 16.9567 19.9531 16.9277 19.9531H8.85499C8.22945 19.9531 7.72216 20.4602 7.72216 21.0859C7.72216 21.7116 8.22945 22.2187 8.85499 22.2187H15.4721C14.6415 23.6093 13.9718 25.0696 13.462 26.5729H1.13283C0.507281 26.5729 0 27.08 0 27.7057C0 28.3314 0.507281 28.8385 1.13283 28.8385H12.8218C12.4953 30.2717 12.308 31.7302 12.2596 33.1928H7.25011C6.62457 33.1928 6.11728 33.7 6.11728 34.3256C6.11728 34.9513 6.62457 35.4585 7.25011 35.4585H12.2957C12.3914 36.9248 12.6271 38.3834 13.0031 39.8127H5.66415C5.0386 39.8127 4.53132 40.3199 4.53132 40.9455C4.53132 41.5712 5.0386 42.0784 5.66415 42.0784H13.7261C14.8374 45.0182 16.5741 47.7736 18.937 50.1364C22.6692 53.8686 27.6124 56.2093 32.8558 56.7273C33.6042 56.8012 34.3531 56.8378 35.101 56.8378C39.5215 56.8378 43.8858 55.5585 47.5891 53.1469C48.1133 52.8055 48.2616 52.1037 47.9202 51.5794C47.5788 51.0551 46.877 50.9069 46.3527 51.2483C38.2465 56.5269 27.3903 55.3856 20.539 48.5344C12.5002 40.4956 12.5002 27.4156 20.539 19.3767C28.5777 11.338 41.6577 11.338 49.6966 19.3767C56.5388 26.219 57.6863 37.0659 52.4251 45.1682C52.0844 45.6929 52.2336 46.3946 52.7582 46.7352C53.2831 47.076 53.9846 46.9268 54.3252 46.402C57.1362 42.0729 58.4016 36.8444 57.8882 31.6792ZM29.4365 5.01433C29.4365 4.13979 30.1479 3.42837 31.0224 3.42837H39.1788C40.0534 3.42837 40.7648 4.13979 40.7648 5.01433C40.7648 5.88888 40.0534 6.60029 39.1788 6.60029H38.9756H31.2256H31.0224C30.1479 6.60029 29.4365 5.88876 29.4365 5.01433ZM32.3584 11.2486V8.86595H37.8428V11.2446C36.0216 11.028 34.1792 11.0293 32.3584 11.2486Z" fill="#43AEAA" stroke="#43AEAA" stroke-width="0.5"/>
<path d="M50.498 48.2021C50.199 48.2021 49.9079 48.3234 49.6973 48.5341C49.4854 48.7448 49.3652 49.037 49.3652 49.335C49.3652 49.6329 49.4854 49.9252 49.6973 50.1359C49.9079 50.3477 50.1991 50.4678 50.498 50.4678C50.796 50.4678 51.0871 50.3477 51.2989 50.1359C51.5096 49.9252 51.6309 49.6329 51.6309 49.335C51.6309 49.037 51.5098 48.7448 51.2989 48.5341C51.0871 48.3234 50.7959 48.2021 50.498 48.2021Z" fill="#43AEAA" stroke="#43AEAA" stroke-width="0.5"/>
<path d="M35.1179 16.3818C25.4279 16.3818 17.5444 24.2652 17.5444 33.9553C17.5444 43.6454 25.4279 51.5288 35.1179 51.5288C44.8079 51.5288 52.6914 43.6454 52.6914 33.9553C52.6914 24.2652 44.8079 16.3818 35.1179 16.3818ZM35.1179 49.2631C26.6771 49.2631 19.8101 42.396 19.8101 33.9553C19.8101 25.5146 26.6771 18.6475 35.1179 18.6475C43.5588 18.6475 50.4257 25.5146 50.4257 33.9553C50.4257 42.396 43.5588 49.2631 35.1179 49.2631Z" fill="#43AEAA" stroke="#43AEAA" stroke-width="0.5"/>
<path d="M42.2837 25.1872L36.6728 30.798C36.2036 30.566 35.6758 30.435 35.1179 30.435C34.5599 30.435 34.0322 30.566 33.563 30.798L31.0519 28.2869C30.6094 27.8445 29.8923 27.8445 29.4497 28.2869C29.0073 28.7293 29.0073 29.4466 29.4497 29.8889L31.9608 32.4001C31.7287 32.8693 31.5978 33.3971 31.5978 33.955C31.5978 35.896 33.1768 37.4752 35.1179 37.4752C37.059 37.4752 38.6381 35.896 38.6381 33.955C38.6381 33.3971 38.507 32.8693 38.275 32.4001L43.7212 26.9539L43.8858 26.7893C44.3282 26.3469 44.3282 25.6296 43.8858 25.1872C43.4434 24.7449 42.7263 24.7449 42.2837 25.1872ZM35.1179 35.2096C34.4262 35.2096 33.8634 34.6468 33.8634 33.9551C33.8634 33.2634 34.4262 32.7006 35.1179 32.7006C35.8096 32.7006 36.3724 33.2634 36.3724 33.9551C36.3724 34.6468 35.8096 35.2096 35.1179 35.2096Z" fill="#43AEAA" stroke="#43AEAA" stroke-width="0.5"/>
<path d="M47.23 32.8364H46.1804C45.5549 32.8364 45.0476 33.3436 45.0476 33.9692C45.0476 34.5949 45.5549 35.1021 46.1804 35.1021H47.23C47.8555 35.1021 48.3628 34.5949 48.3628 33.9692C48.3628 33.3436 47.8555 32.8364 47.23 32.8364Z" fill="#43AEAA" stroke="#43AEAA" stroke-width="0.5"/>
<path d="M24.0551 32.8086H23.0056C22.3801 32.8086 21.8728 33.3158 21.8728 33.9414C21.8728 34.5671 22.3801 35.0742 23.0056 35.0742H24.0551C24.6806 35.0742 25.1879 34.5671 25.1879 33.9414C25.1879 33.3158 24.6806 32.8086 24.0551 32.8086Z" fill="#43AEAA" stroke="#43AEAA" stroke-width="0.5"/>
<path d="M35.1316 24.0255C35.7571 24.0255 36.2644 23.5184 36.2644 22.8927V21.8433C36.2644 21.2176 35.7571 20.7104 35.1316 20.7104C34.5061 20.7104 33.9988 21.2176 33.9988 21.8433V22.8927C33.9988 23.5184 34.5061 24.0255 35.1316 24.0255Z" fill="#43AEAA" stroke="#43AEAA" stroke-width="0.5"/>
<path d="M35.104 43.8853C34.4785 43.8853 33.9712 44.3924 33.9712 45.0181V46.0675C33.9712 46.6932 34.4785 47.2003 35.104 47.2003C35.7295 47.2003 36.2368 46.6932 36.2368 46.0675V45.0181C36.2368 44.3924 35.7295 43.8853 35.104 43.8853Z" fill="#43AEAA" stroke="#43AEAA" stroke-width="0.5"/>
<path d="M1.13281 39.812C0.834883 39.812 0.542617 39.9332 0.331914 40.1439C0.121211 40.3546 0 40.6469 0 40.9448C0 41.2439 0.121098 41.535 0.331914 41.7457C0.542731 41.9564 0.834883 42.0776 1.13281 42.0776C1.43074 42.0776 1.72301 41.9564 1.9336 41.7457C2.1443 41.535 2.26563 41.2428 2.26563 40.9448C2.26563 40.6469 2.14441 40.3546 1.9336 40.1439C1.72301 39.9332 1.43074 39.812 1.13281 39.812Z" fill="#43AEAA" stroke="#43AEAA" stroke-width="0.5"/>
</g>
<defs>
<clipPath id="clip0_59_299">
<rect width="58" height="58" fill="white"/>
</clipPath>
</defs>
</svg>
