<svg width="182" height="182" viewBox="0 0 182 182" fill="none" xmlns="http://www.w3.org/2000/svg">
<path d="M11.0195 155.34V182H85.668V155.34C85.668 146.519 78.4925 139.344 69.6719 139.344H27.0156C18.195 139.344 11.0195 146.519 11.0195 155.34Z" fill="#088C87"/>
<path d="M48.3438 139.344C60.1229 139.344 69.6719 129.795 69.6719 118.016C69.6719 106.236 60.1229 96.6875 48.3438 96.6875C36.5646 96.6875 27.0156 106.236 27.0156 118.016C27.0156 129.795 36.5646 139.344 48.3438 139.344Z" fill="#088C87"/>
<path d="M96.332 155.34V182H170.98V155.34C170.98 146.519 163.805 139.344 154.984 139.344H112.328C103.508 139.344 96.332 146.519 96.332 155.34Z" fill="#088C87"/>
<path d="M133.656 139.344C145.435 139.344 154.984 129.795 154.984 118.016C154.984 106.236 145.435 96.6875 133.656 96.6875C121.877 96.6875 112.328 106.236 112.328 118.016C112.328 129.795 121.877 139.344 133.656 139.344Z" fill="#088C87"/>
<path d="M21.6836 31.9922C21.6836 49.6337 36.0342 63.9844 53.6758 63.9844V87.9526L82.2729 63.9844H99.7271L128.324 87.9526V63.9844C145.966 63.9844 160.316 49.6337 160.316 31.9922C160.316 14.3506 145.966 0 128.324 0H53.6758C36.0342 0 21.6836 14.3506 21.6836 31.9922ZM106.996 26.6602H117.66V37.3242H106.996V26.6602ZM85.668 26.6602H96.332V37.3242H85.668V26.6602ZM64.3398 26.6602H75.0039V37.3242H64.3398V26.6602Z" fill="#088C87"/>
</svg>
