<svg width="182" height="182" viewBox="0 0 182 182" fill="none" xmlns="http://www.w3.org/2000/svg">
<path d="M153.778 1.56229C152.778 0.562352 151.424 0 150.008 0H37.6797C34.7325 0 32.3477 2.38484 32.3477 5.33203V59.0078C32.3477 61.955 34.7325 64.3398 37.6797 64.3398H150.008C151.424 64.3398 152.778 63.7775 153.778 62.7776L180.438 36.1174C182.52 34.0347 182.52 30.6602 180.438 28.5776L153.778 1.56229ZM140.66 27.4479L127.33 46.11C125.404 48.8059 121.541 49.1009 119.222 46.7818L108.558 36.1178C106.475 34.0351 106.475 30.6606 108.558 28.5779C110.641 26.4952 114.015 26.4952 116.098 28.5779L122.31 34.7901L131.985 21.2517C133.703 18.8566 137.036 18.3098 139.421 20.0125C141.816 21.7202 142.373 25.0527 140.66 27.4479Z" fill="#088C87"/>
<path d="M75.0039 75.0039V85.668H31.9922C30.576 85.668 29.222 86.2303 28.2224 87.2303L1.56226 113.89C-0.520429 115.973 -0.520429 119.348 1.56226 121.43L28.2224 148.446C29.222 149.445 30.576 150.008 31.9922 150.008H144.32C147.267 150.008 149.652 147.623 149.652 144.676V91C149.652 88.0528 147.267 85.668 144.32 85.668H106.996V75.0039H75.0039ZM70.3174 121.43C72.4001 123.513 72.4001 126.887 70.3174 128.97C68.2347 131.052 64.8602 131.052 62.7775 128.97L59.0078 125.2L55.238 128.97C53.1554 131.052 49.7809 131.052 47.6982 128.97C45.6155 126.887 45.6155 123.513 47.6982 121.43L51.4679 117.66L47.6982 113.89C45.6155 111.808 45.6155 108.433 47.6982 106.351C49.7809 104.268 53.1554 104.268 55.238 106.351L59.0078 110.12L62.7775 106.351C64.8602 104.268 68.2347 104.268 70.3174 106.351C72.4001 108.433 72.4001 111.808 70.3174 113.89L66.5476 117.66L70.3174 121.43Z" fill="#088C87"/>
<path d="M101.664 182C104.609 182 106.996 179.613 106.996 176.668V160.672H75.0039V176.668C75.0039 179.613 77.3912 182 80.3359 182H101.664Z" fill="#088C87"/>
</svg>
