<svg width="101" height="105" viewBox="0 0 101 105" fill="#43AEAA" xmlns="http://www.w3.org/2000/svg">
<g clip-path="url(#clip0_13_131)">
<path d="M87.1226 37.1211L82.9202 41.725L89.6572 49.2308H71.0156C71.0156 27.5989 55.0868 10 35.5078 10C15.9288 10 0 27.5989 0 49.2308V95H5.91797V49.2308C5.91797 31.2042 19.192 16.5385 35.5078 16.5385C51.8237 16.5385 65.0977 31.2042 65.0977 49.2308H58.969C57.5288 38.1553 48.8836 29.6154 38.4668 29.6154C27.0457 29.6154 17.7539 39.8814 17.7539 52.5V65.5769C17.7539 81.8008 29.7005 95 44.3848 95C59.069 95 71.0156 81.8008 71.0156 65.5769V55.7692H89.6572L82.9204 63.2749L87.1228 67.8789L101 52.5L87.1226 37.1211ZM53.2617 55.7692V62.3077C53.2617 65.913 50.6069 68.8462 47.3438 68.8462C44.0806 68.8462 41.4258 65.913 41.4258 62.3077C41.4258 58.7024 44.0806 55.7692 47.3438 55.7692H53.2617ZM65.0977 65.5769C65.0977 78.1955 55.8059 88.4615 44.3848 88.4615C32.9637 88.4615 23.6719 78.1955 23.6719 65.5769V52.5C23.6719 43.4867 30.3089 36.1538 38.4668 36.1538C45.6116 36.1538 51.5897 41.7789 52.9644 49.2308H47.3438C40.8174 49.2308 35.5078 55.0971 35.5078 62.3077C35.5078 69.5183 40.8174 75.3846 47.3438 75.3846C53.8701 75.3846 59.1797 69.5183 59.1797 62.3077V55.7692H65.0977V65.5769Z" fill="background: #43AEAA" stroke="#43aeaa"/>
</g>
<defs>
<clipPath id="clip0_13_131">
<rect width="101" height="105" fill="#43aeaa"/>
</clipPath>
</defs>
</svg>
