<svg width="105" height="105" viewBox="0 0 105 105" fill="none" xmlns="http://www.w3.org/2000/svg">
<g clip-path="url(#clip0_12_120)">
<path d="M6.15234 52.5C6.15234 26.9438 26.9438 6.15234 52.5 6.15234C62.1114 6.15234 71.2776 9.06671 78.9953 14.4759H73.0328C71.334 14.4759 69.9567 15.8532 69.9567 17.552C69.9567 19.2509 71.334 20.6282 73.0328 20.6282H87.4482C89.147 20.6282 90.5244 19.2509 90.5244 17.552V3.13667C90.5244 1.4378 89.147 0.060498 87.4482 0.060498C85.7493 0.060498 84.372 1.4378 84.372 3.13667V10.7941C75.261 3.79374 64.171 0 52.5 0C38.4768 0 25.2929 5.46103 15.3768 15.3768C5.46103 25.2929 0 38.4768 0 52.5C0 61.7123 2.43448 70.7893 7.04033 78.7496C7.61045 79.7352 8.64363 80.2856 9.70573 80.2856C10.2287 80.2856 10.7586 80.1521 11.2436 79.8716C12.714 79.0207 13.2163 77.1389 12.3656 75.6683C8.30095 68.6433 6.15234 60.6318 6.15234 52.5Z" fill="white" stroke="#ffff" stroke-width="0.5"/>
<path d="M97.9597 26.2503C97.1086 24.7797 95.2264 24.2777 93.7564 25.1285C92.286 25.9794 91.7837 27.8612 92.6344 29.3318C96.699 36.3564 98.8476 44.3677 98.8476 52.4999C98.8476 78.0561 78.0562 98.8476 52.5 98.8476C42.8894 98.8476 33.7249 95.9324 26.008 90.524H31.9672C33.666 90.524 35.0433 89.1467 35.0433 87.4479C35.0433 85.749 33.666 84.3717 31.9672 84.3717H17.552C15.8531 84.3717 14.4758 85.749 14.4758 87.4479V101.863C14.4758 103.562 15.8531 104.939 17.552 104.939C19.2509 104.939 20.6282 103.562 20.6282 101.863V94.1982C29.739 101.201 40.8275 105 52.5 105C66.5232 105 79.7071 99.5389 89.6232 89.6231C99.539 79.707 105 66.5231 105 52.4999C105 43.2872 102.566 34.2102 97.9597 26.2503Z" fill="white" stroke="#ffff" stroke-width="0.5"/>
<path d="M78.8347 44.5436C79.046 43.7555 78.9354 42.9159 78.5273 42.2094L74.4258 35.1053C73.5763 33.634 71.6952 33.13 70.2237 33.9794L67.4342 35.5899C65.1675 33.5811 62.5419 32.0638 59.678 31.1077V27.8906C59.678 26.1918 58.3007 24.8145 56.6018 24.8145H48.3987C46.6998 24.8145 45.3225 26.1918 45.3225 27.8906V31.1075C42.4586 32.0636 39.8328 33.5809 37.5661 35.5897L34.7768 33.9792C33.3056 33.1293 31.424 33.6336 30.5747 35.1051L26.4732 42.2092C25.6237 43.6804 26.1278 45.5618 27.5991 46.4112L30.3877 48.0213C30.0912 49.4903 29.9415 50.9888 29.9415 52.4998C29.9415 54.0108 30.091 55.5095 30.3877 56.9783L27.5991 58.5884C26.1278 59.4378 25.6237 61.3192 26.4732 62.7904L30.5747 69.8945C31.4242 71.366 33.3054 71.87 34.7768 71.0204L37.5661 69.4099C39.8328 71.4189 42.4584 72.936 45.3225 73.8921V77.1094C45.3225 78.8082 46.6998 80.1855 48.3987 80.1855H56.6018C58.3007 80.1855 59.678 78.8082 59.678 77.1094V73.8925C62.5419 72.9364 65.1675 71.4191 67.4342 69.4103L70.2237 71.0208C71.6949 71.8702 73.5763 71.366 74.4258 69.8949L78.5273 62.7908C78.9352 62.0843 79.0458 61.2445 78.8347 60.4566C78.6237 59.6685 78.1082 58.9967 77.4015 58.5888L74.6126 56.9785C74.9091 55.5097 75.0586 54.0112 75.0586 52.5C75.0586 50.9888 74.9091 49.4903 74.6126 48.0215L77.4015 46.4112C78.1079 46.0035 78.6237 45.3315 78.8347 44.5436ZM52.5 60.7031C47.9697 60.7031 44.2969 57.0304 44.2969 52.5C44.2969 47.9696 47.9697 44.2969 52.5 44.2969C57.0304 44.2969 60.7032 47.9696 60.7032 52.5C60.7032 57.0304 57.0304 60.7031 52.5 60.7031Z" stroke="#ffff" stroke-width="6"/>
</g>
<defs>
<clipPath id="clip0_12_120">
<rect width="105" height="105" fill="white"/>
</clipPath>
</defs>
</svg>
