<svg width="166" height="166" viewBox="0 0 166 166" fill="none" xmlns="http://www.w3.org/2000/svg">
<path d="M62.44 74.037L72.6719 63.8051C61.4037 59.7881 48.3117 62.2815 39.3052 71.2881C26.8459 83.7493 26.8459 104.02 39.3052 116.48C51.7654 128.94 72.0373 128.94 84.4948 116.48C93.4852 107.492 95.989 94.439 92.0062 83.1879L81.7468 93.4474C81.856 98.6706 79.9259 103.927 75.9489 107.903C68.2123 115.642 55.6209 115.642 47.8805 107.903C40.1439 100.166 40.1439 87.5734 47.8805 79.8368C51.8842 75.8332 57.1834 73.903 62.44 74.037Z" fill="#088C87"/>
<path d="M98.9811 76.2131C106.238 91.4717 103.559 110.316 90.9463 122.93C74.9316 138.945 48.8722 138.945 32.8576 122.93C16.8429 106.915 16.8429 80.8561 32.8576 64.8414C45.4888 52.2092 64.3701 49.5401 79.641 56.836L94.9651 41.5119C71.0372 26.4025 38.9405 29.2635 18.11 50.0939C-6.03635 74.2403 -6.03635 113.53 18.11 137.677C42.2564 161.823 81.5464 161.823 105.693 137.677C126.505 116.865 129.381 84.8018 114.312 60.8824L98.9811 76.2131Z" fill="#088C87"/>
<path d="M155.321 20.9399C154.638 18.9784 152.933 17.6135 150.869 17.3741L139.701 16.0861L138.412 4.91861C138.173 2.85456 136.808 1.14956 134.847 0.465665C132.886 -0.217284 130.756 0.269994 129.287 1.73848L107.209 23.817C106.044 24.9816 105.484 26.5878 105.673 28.2253L107.271 42.0676L65.5546 83.7826C61.7665 82.4234 57.3601 83.2555 54.332 86.2855C50.1488 90.4678 50.1488 97.2735 54.332 101.455C58.5133 105.637 65.318 105.638 69.5012 101.455C72.5313 98.4247 73.3634 94.0202 72.0041 90.2312L113.719 48.5153L127.561 50.1139C129.197 50.3029 130.805 49.7425 131.97 48.577L154.048 26.4994C155.517 25.03 156.005 22.9004 155.321 20.9399Z" fill="#088C87"/>
</svg>
