<svg width="116" height="115" viewBox="0 0 116 115" fill="none" xmlns="http://www.w3.org/2000/svg">
<path d="M22.8438 31.0469V9.95312C22.8438 8.73438 22.9844 7.5625 23.3125 6.4375H9.95312C5.45312 6.4375 1.75 10.1406 1.75 14.6406V35.7344C1.75 40.2344 5.45312 43.9375 9.95312 43.9375H11.6875L17.6875 51.9062C18.3438 52.75 19.3281 53.2656 20.3594 53.3125H20.5C21.5312 53.3125 22.4688 52.8906 23.125 52.0938L30.1562 44.0781C25.7969 41.3594 22.8438 36.5312 22.8438 31.0469Z" fill="#088C87" stroke="#088C87" stroke-width="2"/>
<path d="M106.047 6.4375H92.6875C93.0156 7.5625 93.1562 8.73438 93.1562 9.95312V31.0469C93.1562 36.5312 90.2031 41.3594 85.8438 44.0781L92.875 52.0938C93.5312 52.8906 94.4687 53.3125 95.5 53.3125H95.6406C96.6719 53.2656 97.6562 52.75 98.3125 51.9062L104.266 43.9375H106.047C110.547 43.9375 114.25 40.2344 114.25 35.7344V14.6406C114.25 10.1406 110.547 6.4375 106.047 6.4375Z" fill="#088C87" stroke="#088C87" stroke-width="2"/>
<path d="M58 48.625C57.9578 48.625 57.9109 48.625 57.8688 48.625C56.8094 48.5828 55.825 48.0672 55.1875 47.2188L49.2109 39.25H38.0781C33.5547 39.25 29.875 35.5703 29.875 31.0469V9.95312C29.875 5.42969 33.5547 1.75 38.0781 1.75H77.9219C82.4453 1.75 86.125 5.42969 86.125 9.95312V31.0469C86.125 35.5703 82.4453 39.25 77.9219 39.25H67.7969L60.6438 47.425C59.9781 48.1891 59.0125 48.625 58 48.625Z" fill="#088C87" stroke="#088C87" stroke-width="2"/>
<path d="M20.5 81.4375C25.6777 81.4375 29.875 77.2402 29.875 72.0625C29.875 66.8848 25.6777 62.6875 20.5 62.6875C15.3223 62.6875 11.125 66.8848 11.125 72.0625C11.125 77.2402 15.3223 81.4375 20.5 81.4375Z" fill="#088C87"/>
<path d="M33.0156 88C28.2812 91.5625 25.1875 97.2812 25.1875 103.703V104.875H5.26562C3.34375 104.875 1.75 103.281 1.75 101.359V99.0156C1.75 91.8906 7.51562 86.125 14.6406 86.125H26.3594C28.7969 86.125 31.0937 86.8281 33.0156 88Z" fill="#088C87"/>
<path d="M95.5 81.4375C100.678 81.4375 104.875 77.2402 104.875 72.0625C104.875 66.8848 100.678 62.6875 95.5 62.6875C90.3223 62.6875 86.125 66.8848 86.125 72.0625C86.125 77.2402 90.3223 81.4375 95.5 81.4375Z" fill="#088C87"/>
<path d="M114.25 99.0156V101.359C114.25 103.281 112.656 104.875 110.734 104.875H90.8125V103.703C90.8125 97.2812 87.7188 91.5625 82.9844 88C84.9063 86.8281 87.2031 86.125 89.6406 86.125H101.359C108.484 86.125 114.25 91.8906 114.25 99.0156Z" fill="#088C87"/>
<path d="M58 83.7813C65.7665 83.7813 72.0625 77.4853 72.0625 69.7188C72.0625 61.9522 65.7665 55.6562 58 55.6562C50.2335 55.6562 43.9375 61.9522 43.9375 69.7188C43.9375 77.4853 50.2335 83.7813 58 83.7813Z" fill="#088C87"/>
<path d="M70.8906 90.8125H45.1094C37.9984 90.8125 32.2188 96.5922 32.2188 103.703V110.734C32.2188 112.675 33.7938 114.25 35.7344 114.25H80.2656C82.2063 114.25 83.7813 112.675 83.7813 110.734V103.703C83.7813 96.5922 78.0016 90.8125 70.8906 90.8125Z" fill="#088C87"/>
</svg>
