<svg width="118" height="118" viewBox="0 0 118 118" fill="none" xmlns="http://www.w3.org/2000/svg">
<path d="M106.222 91.8777V48.1126H95.0965V4.34778H44.4173V48.1126H11.7779V91.8777H0V113.652H118V91.8777H106.222ZM99.3081 55.0267V91.8777H62.457V55.0267H70.0747V70.1351H91.6904V55.0267H99.3081ZM76.9888 55.0267H84.7763V63.221H76.9888V55.0267ZM65.8629 11.2618H73.6504V19.4562H65.8629V11.2618ZM51.3314 11.2618H58.9491V26.3705H80.5647V11.2618H88.1824V48.1126H51.3314V11.2618ZM33.2237 55.0267H41.0112V63.221H33.2237V55.0267ZM18.6919 55.0267H26.3096V70.1351H47.9253V55.0267H55.543V91.8777H18.6919V55.0267ZM111.086 106.738H6.91406V98.7918H111.086V106.738Z" fill="#43AEAA"/>
</svg>
