<svg width="494" height="134" viewBox="0 0 494 134" fill="none" xmlns="http://www.w3.org/2000/svg">
<path d="M165.29 133.85H143.07V85.62C138.241 90.469 132.492 94.3044 126.161 96.9009C119.829 99.4973 113.043 100.803 106.2 100.74C78.88 100.74 58.14 77.87 58.14 50.05C58.14 22.23 78.88 0.0500031 106.2 0.0500031C121.84 0.0500031 135.2 6.14 144.2 16.05V3.16H165.27L165.29 133.85ZM112.29 19.46C94.35 19.46 81.51 33.94 81.51 50.56C81.4617 54.6155 82.2249 58.6397 83.7546 62.3959C85.2844 66.1521 87.5498 69.5645 90.4177 72.4324C93.2855 75.3002 96.6979 77.5656 100.454 79.0954C104.21 80.6251 108.235 81.3883 112.29 81.34C120.496 81.34 128.366 78.0803 134.168 72.2779C139.97 66.4755 143.23 58.6058 143.23 50.4C143.23 42.1942 139.97 34.3245 134.168 28.5221C128.366 22.7197 120.496 19.46 112.29 19.46V19.46ZM244.29 87.1C240.302 91.2867 235.5 94.6145 230.18 96.8792C224.859 99.1439 219.132 100.298 213.35 100.27C193.43 100.27 179.44 86.94 179.44 65.21V3.16H201.66V58.46C201.66 74.92 211.04 80.68 222.24 80.68C231.78 80.68 243.3 73.44 243.3 60.11V3.11H265.52V97.64H244.29V87.1ZM302.56 97.74H280.34V3.26001H302.56V97.74ZM339.56 85.62V133.85H317.37V3.16H338.44V16C347.49 6.12002 360.82 0 376.44 0C403.76 0 424.5 22.22 424.5 50C424.5 77.78 403.78 100.74 376.46 100.74C369.617 100.804 362.83 99.499 356.498 96.9024C350.167 94.3059 344.418 90.4699 339.59 85.62H339.56ZM370.34 81.34C374.396 81.3883 378.42 80.6251 382.176 79.0954C385.932 77.5656 389.344 75.3002 392.212 72.4324C395.08 69.5645 397.346 66.1521 398.875 62.3959C400.405 58.6397 401.168 54.6155 401.12 50.56C401.12 33.94 388.28 19.46 370.34 19.46C362.134 19.46 354.265 22.7197 348.462 28.5221C342.66 34.3245 339.4 42.1942 339.4 50.4C339.4 58.6058 342.66 66.4755 348.462 72.2779C354.265 78.0803 362.134 81.34 370.34 81.34V81.34ZM493.66 3.26001H404.37C417.23 8.26001 422.97 16.33 427.22 25.48H439.51V97.74H461.73V25.48H493.73V3.26001H493.66ZM22.16 75.12V61.54H52.8V39.32H22.16V25.68H54.55C59.5647 15.7543 67.8918 7.89422 78.09 3.46001H0V97.34H52.8V75.12H22.16ZM22.11 3.56001H0V97.44H78.09C67.8918 93.0058 59.5647 85.1457 54.55 75.22H22.16V61.57" fill="#258C89"/>
</svg>
