<svg width="120" height="120" viewBox="0 0 120 120" fill="#43AEAA" xmlns="http://www.w3.org/2000/svg">
<g clip-path="url(#clip0_111_471)">
<path d="M116.9 37.7641C112.788 33.6518 106.097 33.652 101.983 37.7651C100.718 39.0314 92.6402 47.1157 91.4062 48.3509V20.4905C91.4062 17.6733 90.3091 15.0248 88.3169 13.0329L78.3736 3.08906C76.3816 1.09688 73.733 0 70.9158 0H10.5469C4.73133 0 0 4.73133 0 10.5469V109.453C0 115.269 4.73133 120 10.5469 120H80.8594C86.6749 120 91.4062 115.269 91.4062 109.453V78.1948L116.9 52.6798C121.022 48.558 121.023 41.8863 116.9 37.7641ZM70.3127 7.03125C70.977 7.03125 72.2569 6.91617 73.4018 8.06086L83.3454 18.0047C84.461 19.1205 84.3752 20.3433 84.3752 21.0938H70.3127V7.03125ZM84.375 109.453C84.375 111.392 82.7981 112.969 80.8594 112.969H10.5469C8.60836 112.969 7.03125 111.392 7.03125 109.453V10.5469C7.03125 8.60836 8.60836 7.03125 10.5469 7.03125H63.2812V24.6094C63.2812 26.5509 64.8553 28.125 66.7969 28.125H84.375V55.3882C84.375 55.3882 74.003 65.7691 74.0025 65.7694L69.033 70.7391C68.6473 71.1248 68.3562 71.5955 68.1837 72.1132L63.2116 87.0288C62.7905 88.2921 63.1193 89.685 64.061 90.6265C65.0039 91.5694 66.3973 91.8966 67.6587 91.4759L82.5743 86.5041C83.092 86.3316 83.5626 86.0407 83.9484 85.6547L84.375 85.2281V109.453ZM76.4906 73.2251L81.4624 78.1969L79.5633 80.096L72.1057 82.5818L74.5915 75.124L76.4906 73.2251ZM86.4333 73.2239L81.4615 68.2521C84.109 65.6025 95.8673 53.8341 98.3611 51.3382L103.333 56.31L86.4333 73.2239ZM111.927 47.7089L108.303 51.3361L103.331 46.3643L106.956 42.7359C108.328 41.3651 110.558 41.3653 111.928 42.7359C113.299 44.107 113.306 46.3296 111.927 47.7089Z" fill="#43AEAA" stroke="#43AEAA" stroke-width="1.5"/>
<path d="M66.8013 35.1562H17.5825C15.641 35.1562 14.0669 36.7303 14.0669 38.6719C14.0669 40.6134 15.641 42.1875 17.5825 42.1875H66.8013C68.7428 42.1875 70.3169 40.6134 70.3169 38.6719C70.3169 36.7303 68.7428 35.1562 66.8013 35.1562Z" fill="#43AEAA" stroke="#43AEAA" stroke-width="1.5"/>
<path d="M52.7388 49.2188H17.5825C15.641 49.2188 14.0669 50.7928 14.0669 52.7344C14.0669 54.6759 15.641 56.25 17.5825 56.25H52.7388C54.6803 56.25 56.2544 54.6759 56.2544 52.7344C56.2544 50.7928 54.6803 49.2188 52.7388 49.2188Z" fill="#43AEAA" stroke="#43AEAA" stroke-width="1.5"/>
<path d="M52.7388 63.2812H17.5825C15.641 63.2812 14.0669 64.8553 14.0669 66.7969C14.0669 68.7384 15.641 70.3125 17.5825 70.3125H52.7388C54.6803 70.3125 56.2544 68.7384 56.2544 66.7969C56.2544 64.8553 54.6803 63.2812 52.7388 63.2812Z" fill="#43AEAA" stroke="#43AEAA" stroke-width="1.5"/>
<path d="M52.7388 77.3438H17.5825C15.641 77.3438 14.0669 78.9178 14.0669 80.8594C14.0669 82.8009 15.641 84.375 17.5825 84.375H52.7388C54.6803 84.375 56.2544 82.8009 56.2544 80.8594C56.2544 78.9178 54.6803 77.3438 52.7388 77.3438Z" fill="#43AEAA" stroke="#43AEAA" stroke-width="1.5"/>
<path d="M66.8013 98.9062H45.7075C43.766 98.9062 42.1919 100.48 42.1919 102.422C42.1919 104.363 43.766 105.938 45.7075 105.938H66.8013C68.7428 105.938 70.3169 104.363 70.3169 102.422C70.3169 100.48 68.7428 98.9062 66.8013 98.9062Z" fill="#43AEAA" stroke="#43AEAA" stroke-width="1.5"/>
</g>
<defs>
<clipPath id="clip0_111_471">
<rect width="120" height="120" fill="white"/>
</clipPath>
</defs>
</svg>
