<svg width="79" height="76" viewBox="0 0 79 76" fill="none" xmlns="http://www.w3.org/2000/svg">
<path d="M63.8397 21.0841C67.2261 24.5376 69.0443 28.4109 69.0443 34.6897C69.0443 45.7384 60.9661 55.6411 49.2187 60.5372L46.2827 56.1872C57.2476 50.4924 59.3912 43.1025 60.2461 38.4431C58.4805 39.3207 56.1692 39.6269 53.9039 39.4249C47.9726 38.8977 43.2973 34.2225 43.2973 28.4109C43.2973 25.4807 44.5097 22.6704 46.6678 20.5984C48.8258 18.5264 51.7528 17.3623 54.8047 17.3623C58.3326 17.3623 61.7059 18.9091 63.8397 21.0841ZM30.9614 21.0841C34.3479 24.5376 36.166 28.4109 36.166 34.6897C36.166 45.7384 28.0879 55.6411 16.3404 60.5372L13.4044 56.1872C24.3693 50.4924 26.513 43.1025 27.3678 38.4431C25.6023 39.3207 23.2909 39.6269 21.0256 39.4249C15.0944 38.8977 10.4224 34.2225 10.4224 28.4109C10.4224 25.4807 11.6347 22.6704 13.7928 20.5984C15.9509 18.5264 18.8778 17.3623 21.9298 17.3623C25.4576 17.3623 28.8309 18.9091 30.9647 21.0841H30.9614Z" stroke="white" stroke-width="4"/>
</svg>
