<svg width="121" height="121" viewBox="0 0 121 121" fill="none" xmlns="http://www.w3.org/2000/svg">
<g clip-path="url(#clip0_111_442)">
<path d="M120.507 50.8954L100.255 24.5873C99.5051 23.6143 98.1379 23.3743 97.1012 24.0334L84.0256 32.3492H66.9721C66.7515 32.3492 66.5318 32.3963 66.3195 32.4581L53.0971 36.2643L39.3771 32.5117L26.0458 24.0334C25.0267 23.3854 23.6844 23.6051 22.9265 24.5448L0.526092 52.2912C-0.278901 53.2882 -0.145966 54.7441 0.825195 55.5795L12.5659 65.6835L23.0991 79.8779C20.0185 83.1597 20.0786 88.3359 23.2838 91.542C24.7045 92.9618 26.5111 93.7641 28.3694 93.9505C28.3048 94.3715 28.2716 94.7989 28.2716 95.2328C28.2716 97.4724 29.144 99.5781 30.7272 101.161C32.3113 102.745 34.417 103.618 36.6566 103.618C36.6871 103.618 36.7166 103.616 36.7461 103.615C36.7452 103.672 36.7425 103.729 36.7425 103.786C36.7425 106.025 37.6148 108.131 39.1981 109.715C40.7822 111.298 42.8879 112.171 45.1275 112.171C45.5697 112.171 46.0073 112.135 46.4365 112.068C46.6184 113.933 47.4225 115.748 48.8478 117.173C50.4818 118.808 52.6291 119.625 54.7763 119.625C56.9236 119.625 59.0708 118.808 60.7058 117.173L61.988 115.891L62.5262 116.325C64.1473 117.895 66.2521 118.68 68.3569 118.68C70.5041 118.68 72.6514 117.863 74.2854 116.228C75.9535 114.56 76.7705 112.358 76.7364 110.168C78.9261 110.201 81.1288 109.385 82.7969 107.718C84.4632 106.05 85.2802 103.85 85.2479 101.661C87.529 101.697 89.6929 100.821 91.3075 99.2061C92.9756 97.5379 93.7926 95.3362 93.7585 93.1455C95.95 93.1788 98.1508 92.3627 99.819 90.6946C102.666 87.8475 103.032 83.4468 100.921 80.1983L108.612 64.091L120.175 54.1412C121.13 53.3187 121.276 51.8934 120.507 50.8954V50.8954ZM25.287 29.1745L34.8731 35.2701L14.0199 60.6753L5.66346 53.483L25.287 29.1745ZM26.6394 83.0388L29.5326 80.1456C29.6203 80.0579 29.7126 79.9749 29.8068 79.8973C30.3727 79.4357 31.0577 79.1606 31.7833 79.0951C31.8036 79.0932 31.8248 79.0932 31.8451 79.0923C31.9485 79.084 32.0519 79.0785 32.1562 79.0794C33.1477 79.0932 34.069 79.4985 34.7521 80.2195C36.0926 81.6365 36.0205 83.9518 34.5915 85.3809L31.786 88.1863C30.3671 89.6052 28.0583 89.6052 26.6394 88.1863C25.2205 86.7665 25.2205 84.4577 26.6394 83.0388ZM34.0828 97.8056C33.3951 97.1188 33.0166 96.2049 33.0166 95.2328C33.0166 94.2607 33.3951 93.3468 34.0828 92.659L39.6929 87.049C40.7674 85.9745 42.4568 85.68 43.8305 86.3345C45.2466 87.0093 46.0433 88.5464 45.8356 90.0927C45.7248 90.918 45.3407 91.6953 44.7518 92.2852L39.2304 97.8056C38.5426 98.4934 37.6287 98.8719 36.6566 98.8719C35.6845 98.8719 34.7706 98.4934 34.0828 97.8056ZM42.5537 106.359C41.866 105.672 41.4875 104.758 41.4875 103.786C41.4875 102.814 41.866 101.9 42.5537 101.212L48.1628 95.6021C49.3122 94.4536 51.1557 94.2062 52.5626 95.0251C53.8476 95.7728 54.5206 97.2407 54.3 98.7029C54.179 99.507 53.7969 100.263 53.2217 100.838L47.7013 106.359C47.0135 107.046 46.0996 107.425 45.1275 107.425C44.1554 107.425 43.2415 107.046 42.5537 106.359ZM52.2026 113.818C50.7837 112.399 50.7837 110.09 52.2026 108.671L55.0957 105.778C55.1834 105.69 55.2748 105.608 55.369 105.531C55.3718 105.529 55.3736 105.527 55.3755 105.525C55.8463 105.143 56.3992 104.887 56.9891 104.775C57.003 104.774 57.0168 104.772 57.0307 104.77C57.1322 104.751 57.2356 104.737 57.339 104.727C57.3805 104.724 57.4221 104.724 57.4646 104.721C57.5495 104.716 57.6335 104.711 57.7193 104.712C58.7099 104.726 59.6321 105.13 60.3153 105.852C60.3993 105.94 60.4777 106.033 60.5497 106.128C61.6409 107.554 61.4941 109.673 60.1399 111.028L57.3492 113.819C55.9303 115.238 53.6215 115.237 52.2026 113.818V113.818ZM96.4633 87.3389C95.0444 88.7587 92.7356 88.7578 91.3167 87.3389C91.265 87.2872 91.2106 87.2392 91.1552 87.1939L75.8991 71.7772C74.9768 70.8458 73.4749 70.8384 72.5434 71.7606C71.6119 72.6819 71.6045 74.1839 72.5259 75.1154L87.9472 90.6973C87.949 90.6992 87.9509 90.701 87.9527 90.7029C89.3716 92.1218 89.3716 94.4315 87.9527 95.8504C87.265 96.5381 86.3511 96.9166 85.379 96.9166C84.406 96.9166 83.492 96.5381 82.8052 95.8504L72.4889 85.427C71.5676 84.4956 70.0656 84.4882 69.1342 85.4095C68.2027 86.3317 68.1953 87.8337 69.1166 88.7652L79.2751 99.0288C79.3268 99.0934 79.3821 99.1553 79.4412 99.2144C80.8601 100.633 80.8601 102.943 79.4412 104.362C78.0214 105.781 75.7117 105.78 74.2928 104.361L68.6624 98.6716C67.7402 97.7401 66.2382 97.7318 65.3068 98.654C64.3753 99.5753 64.3679 101.077 65.2892 102.009L70.7626 107.538C70.8143 107.603 70.8697 107.666 70.9297 107.725C72.3486 109.144 72.3486 111.454 70.9297 112.872C69.5108 114.292 67.202 114.291 65.7831 112.872C65.6197 112.709 65.4277 112.584 65.2449 112.443C65.0898 112.325 65.0492 112.243 65.1268 112.055C65.2052 111.863 65.3225 111.691 65.4009 111.499C65.4877 111.285 65.5579 111.064 65.6262 110.842C65.9899 109.67 66.097 108.409 65.9336 107.192C65.6197 104.858 64.3356 102.751 62.3896 101.418C61.3381 100.699 60.1214 100.227 58.8604 100.05C59.4715 97.3542 58.7376 94.4315 56.8285 92.4144C55.2573 90.7546 53.135 89.8231 50.852 89.7917C50.7689 89.7908 50.6858 89.7908 50.6018 89.7917C50.6526 87.6131 49.8605 85.4483 48.3585 83.8613C46.7864 82.2015 44.6641 81.27 42.382 81.2387C41.7035 81.2294 41.0185 81.3014 40.3575 81.4538C40.0751 79.4884 39.0845 77.6697 37.5844 76.369C36.0935 75.0784 34.2185 74.3621 32.2218 74.3344C30.1197 74.3039 28.0546 75.0794 26.4936 76.489L17.322 64.1307L39.2636 37.3998L46.2565 39.3126L37.1237 55.4281C36.0196 57.3769 35.7408 59.6386 36.3381 61.797C36.9354 63.9562 38.3367 65.7527 40.2855 66.8568C40.4074 66.926 40.5302 66.9916 40.6548 67.0544C40.664 67.059 40.6733 67.0636 40.6834 67.0682C41.0111 67.2316 41.3481 67.3719 41.6897 67.4901C43.2803 68.0412 44.9982 68.1012 46.6553 67.6433C48.8137 67.046 50.6101 65.6438 51.7142 63.6959L57.6492 53.2227L68.2461 53.9742L96.4642 82.1914C97.8822 83.6112 97.8822 85.92 96.4633 87.3389V87.3389ZM97.4465 76.4632L70.975 49.9926C70.9251 49.9418 70.8725 49.8938 70.818 49.8486C70.4368 49.531 69.9641 49.339 69.4656 49.3039L56.4906 48.3835C55.5933 48.3217 54.7015 48.7989 54.2584 49.5809L47.5859 61.3566C47.1067 62.2022 46.3267 62.8106 45.3897 63.07C44.4536 63.3294 43.4713 63.2076 42.6248 62.7284C41.7792 62.2493 41.1708 61.4693 40.9114 60.5323C40.652 59.5953 40.773 58.613 41.253 57.7674L50.1605 42.047L53.7701 41.0084C53.7941 41.001 53.8172 40.9918 53.8412 40.9844L67.3128 37.0942H83.5899L103.91 62.926L97.4465 76.4632ZM107.019 59.202L88.2269 35.3005L97.8176 29.2012L115.377 52.0097L107.019 59.202Z" fill="#43AEAA" stroke="#43AEAA" stroke-width="2"/>
<path d="M73.3051 27.8941C73.9126 27.8941 74.52 27.6623 74.9834 27.1989L91.1904 10.992C92.1172 10.0651 92.1172 8.56315 91.1904 7.6363C90.2635 6.70945 88.7615 6.70945 87.8347 7.6363L71.6278 23.8432C70.7009 24.7701 70.7009 26.2721 71.6278 27.1989C72.0912 27.6623 72.6986 27.8941 73.3051 27.8941Z" fill="#43AEAA" stroke="#43AEAA" stroke-width="2"/>
<path d="M46.0166 27.1989C46.48 27.6623 47.0874 27.8941 47.6949 27.8941C48.3014 27.8941 48.9088 27.6623 49.3722 27.1989C50.2991 26.2721 50.2991 24.7701 49.3722 23.8432L33.1653 7.6363C32.2385 6.70945 30.7365 6.70945 29.8096 7.6363C28.8828 8.56315 28.8828 10.0651 29.8096 10.992L46.0166 27.1989Z" fill="#43AEAA" stroke="#43AEAA" stroke-width="2"/>
<path d="M60.5 27.8941C61.8099 27.8941 62.8725 26.8316 62.8725 25.5216V12.1091C62.8725 10.7991 61.8099 9.73657 60.5 9.73657C59.19 9.73657 58.1274 10.7991 58.1274 12.1091V25.5216C58.1274 26.8316 59.19 27.8941 60.5 27.8941Z" fill="#43AEAA" stroke="#43AEAA" stroke-width="2"/>
<path d="M58.3101 3.50982C58.6867 4.42282 59.6256 5.02195 60.6161 4.97026C61.5947 4.91948 62.4541 4.2585 62.7569 3.32704C63.0607 2.38819 62.7302 1.31825 61.9436 0.720042C61.1414 0.108912 60.0225 0.074755 59.1834 0.629572C58.2473 1.24809 57.8845 2.47958 58.3101 3.50982Z" fill="#43AEAA" stroke="#43AEAA" stroke-width="2"/>
</g>
<defs>
<clipPath id="clip0_111_442">
<rect width="121" height="121" fill="white"/>
</clipPath>
</defs>
</svg>
