<svg width="120" height="120" viewBox="0 0 120 120" fill="none" xmlns="http://www.w3.org/2000/svg">
<path d="M117.599 85.6622L117.599 85.6622C118.62 86.1728 119.266 87.217 119.266 88.3593C119.266 89.5017 118.62 90.5459 117.599 91.0565L117.599 91.0565L61.3486 119.181L61.3485 119.182C60.4998 119.606 59.5002 119.606 58.6515 119.182L58.6514 119.181L2.40142 91.0565L2.40135 91.0565C1.37973 90.5459 0.734375 89.5017 0.734375 88.3593C0.734375 87.217 1.37973 86.1728 2.40135 85.6622L2.4014 85.6622L4.43413 84.6459L55.0575 109.957C55.0579 109.958 55.0583 109.958 55.0587 109.958C58.1186 111.508 61.8817 111.508 64.9416 109.958C64.9419 109.958 64.9422 109.958 64.9425 109.957L115.566 84.6459L117.599 85.6622Z" fill="#088C87" stroke="#088C87"/>
<path d="M117.599 69.2559L117.599 69.256C118.62 69.7666 119.266 70.8107 119.266 71.9531C119.266 73.0954 118.62 74.1396 117.599 74.6502L117.599 74.6502L61.3486 102.775L61.3485 102.775C60.4998 103.2 59.5002 103.2 58.6515 102.775L58.6514 102.775L2.40142 74.6502L2.40135 74.6502C1.37973 74.1396 0.734375 73.0954 0.734375 71.9531C0.734375 70.8107 1.37973 69.7666 2.40135 69.256L2.4014 69.2559L4.43413 68.2397L55.0575 93.5512C55.0579 93.5514 55.0583 93.5516 55.0587 93.5518C58.1186 95.1015 61.8817 95.1014 64.9416 93.5517C64.9419 93.5515 64.9422 93.5514 64.9425 93.5512L115.566 68.2397L117.599 69.2559Z" fill="#088C87" stroke="#088C87"/>
<path d="M44.1138 52.767L43.8493 52.5664L43.5617 52.7324L40.6667 54.4039C39.2243 55.2369 37.3799 54.7425 36.5472 53.3002L29.5159 41.1216C28.6832 39.6794 29.1774 37.835 30.6196 37.0023L30.3696 36.5693L30.6196 37.0023L33.5025 35.3378L33.7897 35.1719L33.7486 34.8428C33.6144 33.7681 33.5469 32.6975 33.5469 31.6406C33.5469 30.5838 33.6144 29.5132 33.7488 28.4383L33.79 28.1091L33.5027 27.9432L30.6199 26.2787L30.3719 26.7082L30.6199 26.2787C29.1776 25.446 28.6834 23.6016 29.5162 22.1594L29.0833 21.9094L29.5162 22.1594L36.5474 9.98079C37.3801 8.53853 39.2245 8.04437 40.6667 8.87707C40.6667 8.87707 40.6667 8.87707 40.6667 8.87707L43.5617 10.5486L43.8493 10.7147L44.1138 10.514C45.8366 9.20768 47.6871 8.13134 49.6493 7.29428L49.9531 7.16467V6.83437V3.51562C49.9531 1.8502 51.3033 0.5 52.9688 0.5H67.0313C68.6967 0.5 70.0469 1.8502 70.0469 3.51562V6.83437V7.16467L70.3507 7.29428C72.3129 8.13134 74.1634 9.20768 75.8862 10.514L76.1507 10.7146L76.4383 10.5487L79.3335 8.87733L79.3336 8.87728C80.7758 8.04441 82.6201 8.53871 83.4529 9.98101L90.4841 22.1596L90.9171 21.9096L90.4841 22.1596C91.3168 23.6019 90.8227 25.4462 89.3804 26.2789L89.6304 26.712L89.3804 26.2789L86.4976 27.9435L86.2104 28.1093L86.2514 28.4384C86.3856 29.5132 86.4531 30.5838 86.4531 31.6406C86.4531 32.6975 86.3856 33.768 86.2512 34.8427L86.2101 35.1719L86.4973 35.3378L89.3801 37.0023L89.6302 36.5693L89.3802 37.0023C90.8224 37.835 91.3166 39.6794 90.4839 41.1216L83.4526 53.3002C82.6199 54.7425 80.7756 55.2366 79.3333 54.4039L76.4383 52.7324L76.1508 52.5664L75.8862 52.767C74.1629 54.0736 72.3129 55.1497 70.3507 55.9867L70.0469 56.1163V56.4466V59.7656C70.0469 61.431 68.6967 62.7812 67.0313 62.7812H52.9688C51.3033 62.7812 49.9531 61.431 49.9531 59.7656V56.4466V56.1163L49.6493 55.9867C47.6871 55.1497 45.8371 54.0736 44.1138 52.767ZM71.0469 31.6406C71.0469 25.5489 66.0917 20.5938 60 20.5938C53.9083 20.5938 48.9531 25.5489 48.9531 31.6406C48.9531 37.7323 53.9083 42.6875 60 42.6875C66.0917 42.6875 71.0469 37.7323 71.0469 31.6406Z" fill="#088C87" stroke="#088C87"/>
<path d="M2.40142 58.2441L2.40135 58.244C1.37973 57.7334 0.734375 56.6893 0.734375 55.5469C0.734375 54.4046 1.37973 53.3604 2.40135 52.8498L2.40142 52.8498L21.6792 43.2111C21.9086 43.8732 22.2028 44.518 22.5606 45.1376L29.5916 57.3152C31.559 60.7236 35.2254 62.8398 39.1622 62.8398C40.2065 62.8398 41.2429 62.6907 42.2397 62.401C43.4245 67.224 47.7843 70.8125 52.9688 70.8125H67.0312C72.2157 70.8125 76.5755 67.2239 77.7606 62.4009C78.7572 62.6905 79.7936 62.8398 80.8378 62.8398H80.8379H80.838C84.7746 62.8398 88.441 60.7233 90.4082 57.3157L97.4397 45.1368L97.4397 45.1368C97.8001 44.5123 98.0911 43.8666 98.3169 43.2089L117.599 52.8498L117.599 52.8498C118.62 53.3604 119.266 54.4046 119.266 55.5469C119.266 56.6893 118.62 57.7334 117.599 58.244L117.599 58.2441L61.3486 86.3691L61.3485 86.3691C60.4998 86.7937 59.5002 86.7937 58.6515 86.3691L58.6514 86.3691L2.40142 58.2441Z" fill="#088C87" stroke="#088C87"/>
</svg>
