<svg width="192" height="192" viewBox="0 0 192 192" fill="none" xmlns="http://www.w3.org/2000/svg">
<g clip-path="url(#clip0_66_758)">
<path d="M135.615 21.5505L129.167 32.7088L151.51 45.6058L157.959 34.4472C159.735 31.3498 158.677 27.4197 155.592 25.6302L144.434 19.1816C141.347 17.394 137.405 18.4516 135.615 21.5505Z" fill="#088C87"/>
<path d="M96 29.0384C100.078 29.0384 104.062 29.4375 108 30V19.563L116.25 19.4999V6C116.25 2.68361 113.566 0 110.25 0H81.813C78.4966 0 75.813 2.68361 75.813 6V19.4999L84 19.563V30C87.9375 29.4375 91.9215 29.0384 96 29.0384Z" fill="#088C87"/>
<path d="M96 36C52.9217 36 18 70.9214 18 114C18 157.079 52.9217 192 96 192C139.078 192 174 157.079 174 114C174 70.9214 139.078 36 96 36ZM132.45 150.66L86.9998 119.195V74.7733H100.116V112.323L139.915 139.876L132.45 150.66Z" fill="#088C87"/>
</g>
<defs>
<clipPath id="clip0_66_758">
<rect width="192" height="192" fill="white"/>
</clipPath>
</defs>
</svg>
