<svg width="158" height="158" viewBox="0 0 158 158" fill="none" xmlns="http://www.w3.org/2000/svg">
<g clip-path="url(#clip0_66_727)">
<path d="M78.0985 0C61.8177 0 48.5725 13.2452 48.5725 29.5259C48.5725 38.9902 53.0539 47.4225 60 52.8297V32.6535C60 23.0131 67.8433 15.1702 77.4834 15.1702C87.1239 15.1702 94.9668 23.0128 94.9668 32.6535V53.7385C102.611 48.3968 107.625 39.5383 107.625 29.5256C107.624 13.2452 94.3792 0 78.0985 0Z" fill="#088C87"/>
<path d="M114.112 78.9413H91.1942C89.1112 78.9413 87.4219 77.2521 87.4219 75.1691V32.6535C87.4219 27.1732 82.9637 22.7146 77.483 22.7146C72.0024 22.7146 67.5445 27.1732 67.5445 32.6535V111.452C67.5445 112.886 66.7322 114.195 65.4482 114.832C64.1641 115.469 62.6304 115.322 61.4892 114.455L45.7454 102.486C43.5889 100.846 41.0106 99.9822 38.3472 99.9822C37.7892 99.9822 37.2282 100.02 36.666 100.097C33.4192 100.539 30.5391 102.219 28.5561 104.828C26.5731 107.436 25.7244 110.661 26.1667 113.907C26.6089 117.154 28.2889 120.034 30.8974 122.017L66.0555 148.746C66.9936 149.46 67.5448 150.57 67.5448 151.749C67.5448 155.196 70.3493 158 73.7963 158H125.696C129.143 158 131.948 155.196 131.948 151.749V96.7777C131.948 86.9425 123.947 78.9413 114.112 78.9413Z" fill="#088C87"/>
</g>
<defs>
<clipPath id="clip0_66_727">
<rect width="158" height="158" fill="white"/>
</clipPath>
</defs>
</svg>
